<?xml version="1.0" standalone="no"?>
<!DOCTYPE svg PUBLIC "-//W3C//DTD SVG 1.1//EN" "http://www.w3.org/Graphics/SVG/1.1/DTD/svg11.dtd">
<svg version="1.1" xmlns="http://www.w3.org/2000/svg" viewBox="0 0 285.5520106917502 372.62078242011194" width="856.6560320752506" height="1117.8623472603358"><!-- svg-source:excalidraw --><metadata></metadata><defs><style class="style-fonts">
      </style></defs><g stroke-linecap="round"><g transform="translate(227.3902642893063 269.35460055851945) rotate(354.6935016593685 -84.6142589434312 -83.04420934846348)" fill-rule="evenodd"><path d="M1.5 -0.44 L14.08 -33.83 L-3.74 -112.41 L-15.75 -71.85 L-26.47 -128.57 L-69.25 -187.66 L-63.85 -150.48 L-84.98 -188.13 L-163.18 -228.74 L-201.8 -269.99 L-174.46 -151.1 L-148.3 -129.41 L-195.03 -152.75 L-149.81 -74.25 L-110.56 -52.47 L-162.08 -61.84 L-99.61 4.8 L-53.76 16.84 L31.11 103.12 L-48.74 -3.23 L-131.29 -109.39 L-90.95 -101.45 L-174.35 -208.45 L-42.69 -74.86 L-79.32 -81.97 L-1.49 0.76" stroke="none" stroke-width="0" fill="#ffc9c9" fill-rule="evenodd"></path><path d="M0 0 C3.93 -11.64, 7.88 -22.99, 14.03 -34.33 M0 0 C4.53 -9.81, 7.42 -20.42, 14.03 -34.33 M14.03 -34.33 C9.64 -54.85, 3.74 -75.96, -5.31 -112.01 M14.03 -34.33 C9.93 -52.94, 4.29 -71.55, -5.31 -112.01 M-5.31 -112.01 C-8.35 -97.38, -10.57 -82.3, -14.28 -69.89 M-5.31 -112.01 C-7.5 -101.54, -9.43 -92.17, -14.28 -69.89 M-14.28 -69.89 C-15.15 -84.15, -19.5 -97.06, -24.98 -128.23 M-14.28 -69.89 C-18.17 -88.24, -21.82 -106.58, -24.98 -128.23 M-24.98 -128.23 C-35.96 -144.13, -47.57 -158.53, -68.91 -189.03 M-24.98 -128.23 C-34.67 -142.92, -44.82 -156.33, -68.91 -189.03 M-68.91 -189.03 C-64.67 -175.56, -62.08 -158.15, -62.27 -149.98 M-68.91 -189.03 C-67.11 -180.49, -65.73 -170.1, -62.27 -149.98 M-62.27 -149.98 C-68.19 -161.11, -78.24 -172.94, -86.09 -188.3 M-62.27 -149.98 C-67.29 -158.3, -72.94 -167.92, -86.09 -188.3 M-86.09 -188.3 C-102.03 -195.92, -119.27 -204.92, -162.72 -230.41 M-86.09 -188.3 C-112.6 -203.22, -140.06 -218.79, -162.72 -230.41 M-162.72 -230.41 C-174.3 -245.11, -188.09 -258.29, -200.52 -270.88 M-162.72 -230.41 C-175.12 -244.26, -187.49 -257.03, -200.52 -270.88 M-200.52 -270.88 C-197.03 -246.09, -189.73 -222.79, -174.81 -150.67 M-200.52 -270.88 C-195.16 -246.23, -188.77 -220.37, -174.81 -150.67 M-174.81 -150.67 C-167.01 -143.99, -159.72 -140.19, -146.84 -128.23 M-174.81 -150.67 C-169.06 -146.59, -163.4 -140.25, -146.84 -128.23 M-146.84 -128.23 C-158.97 -134.93, -171.67 -141.68, -194.48 -154.12 M-146.84 -128.23 C-156.55 -134, -166.45 -139.77, -194.48 -154.12 M-194.48 -154.12 C-176.98 -124.42, -160.83 -94.21, -150.64 -72.31 M-194.48 -154.12 C-184.32 -132.7, -172.44 -111.94, -150.64 -72.31 M-150.64 -72.31 C-138.46 -66.34, -124.24 -58.45, -110.25 -50.56 M-150.64 -72.31 C-135.75 -65.05, -121.79 -55.18, -110.25 -50.56 M-110.25 -50.56 C-130.15 -55.22, -145.63 -56.95, -162.06 -61.35 M-110.25 -50.56 C-130.98 -55.53, -150.9 -59.63, -162.06 -61.35 M-162.06 -61.35 C-141.76 -41, -124.37 -19.84, -99.7 5.27 M-162.06 -61.35 C-138.43 -36.58, -114.76 -10.18, -99.7 5.27 M-99.7 5.27 C-85.28 7.8, -74.79 11.71, -54.36 15.93 M-99.7 5.27 C-86.23 7.42, -71.15 10.74, -54.36 15.93 M-54.36 15.93 C-21.24 46.49, 7.86 82.1, 31.29 104.79 M-54.36 15.93 C-23.88 48.78, 8.76 82.04, 31.29 104.79 M31.29 104.79 C2.89 69.34, -26.3 31.53, -50.23 -4.01 M31.29 104.79 C-1.19 61.85, -33.94 17.06, -50.23 -4.01 M-50.23 -4.01 C-83.33 -48.43, -113.69 -87.33, -129.58 -111.31 M-50.23 -4.01 C-72.47 -35.72, -94.19 -65.1, -129.58 -111.31 M-129.58 -111.31 C-116.84 -108.95, -100.35 -104.33, -90.57 -99.92 M-129.58 -111.31 C-119.82 -108.26, -111.99 -105.83, -90.57 -99.92 M-90.57 -99.92 C-122.26 -141.62, -156.59 -182.26, -173.43 -209.01 M-90.57 -99.92 C-118.54 -136.8, -147.17 -173.79, -173.43 -209.01 M-173.43 -209.01 C-122.73 -159.41, -73.18 -107.97, -40.86 -73 M-173.43 -209.01 C-136.64 -171.15, -97.25 -132.14, -40.86 -73 M-40.86 -73 C-51.2 -73.87, -64.93 -79.03, -81.25 -81.28 M-40.86 -73 C-54.44 -75.07, -69.05 -77.97, -81.25 -81.28 M-81.25 -81.28 C-62.64 -62.57, -42.3 -43.04, 0 0 M-81.25 -81.28 C-64.58 -64.42, -46 -46.13, 0 0 M0 0 C0 0, 0 0, 0 0 M0 0 C0 0, 0 0, 0 0" stroke="#1e1e1e" stroke-width="1" fill="none"></path></g></g><mask></mask></svg>