<?xml version="1.0" encoding="UTF-8"?>
<svg version="1.1" xmlns="http://www.w3.org/2000/svg" width="1086" height="1448">
<path d="M0 0 C3.50827915 1.52079073 5.95271646 3.5995673 8.75 6.1875 C10.0803125 7.40566406 10.0803125 7.40566406 11.4375 8.6484375 C12.283125 9.42445312 13.12875 10.20046875 14 11 C17.6509718 14.25348697 21.34768018 17.45205852 25.08203125 20.609375 C32.16506802 26.61160484 39.04892868 32.77407129 45.8125 39.13452148 C50.5875286 43.62487529 55.43966357 47.98935065 60.4453125 52.22216797 C68.08000467 58.67892303 75.52705585 65.27794889 82.80810547 72.13232422 C86.47412526 75.5827524 90.18199925 78.9592175 93.99609375 82.24609375 C98.21064552 85.93485349 102.30642705 89.75839688 106.42675781 93.55175781 C108.9906259 95.91191695 111.55720296 98.26911658 114.125 100.625 C114.62483398 101.08358398 115.12466797 101.54216797 115.63964844 102.01464844 C119.54983814 105.59749721 123.49050495 109.14532495 127.4375 112.6875 C131.2309403 116.11084856 134.99047 119.57077352 138.75 123.03125 C139.24991455 123.48105225 139.7498291 123.93085449 140.26489258 124.39428711 C141.57901891 125.6104133 142.85673901 126.86603098 144.1159668 128.13891602 C150.66651815 134.51991269 157.33028917 137.76256026 165.8125 140.9375 C167.18936476 141.47216495 168.56531396 142.00919245 169.94042969 142.54833984 C172.96076006 143.73006975 175.98514301 144.90057501 179.01220703 146.06494141 C184.40088345 148.14582663 189.76195003 150.29360802 195.12109375 152.44921875 C196.07207947 152.83163223 197.02306519 153.21404572 198.00286865 153.60804749 C199.9426376 154.38818792 201.88237539 155.16840582 203.82208252 155.94869995 C218.2637989 161.75070489 232.7297974 167.49017371 247.22363281 173.16064453 C256.1328659 176.64890859 265.0168708 180.19845594 273.89660645 183.76089478 C282.97736537 187.4032594 292.07559883 190.99863246 301.1875 194.5625 C326.95015652 204.65634618 352.47131025 215.33243359 378 226 C380.9079653 227.21509031 383.81597987 228.43005519 386.72460938 229.64355469 C388.49089122 230.38091553 390.2565181 231.11984726 392.02148438 231.86035156 C398.13460951 234.416863 404.26690967 236.92127916 410.4107666 239.40292358 C414.61198423 241.10196119 418.80906483 242.81109455 423.00592041 244.52087402 C425.11468885 245.37697082 427.22531365 246.22851016 429.33782959 247.07531738 C432.32770534 248.27434119 435.31076645 249.48907034 438.29296875 250.70703125 C439.64924126 251.24409447 439.64924126 251.24409447 441.03291321 251.79200745 C448.00971034 254.66961004 452.02714635 258.50905386 456.56640625 264.51953125 C457.21061523 265.36878174 457.85482422 266.21803223 458.51855469 267.09301758 C459.19305664 267.99044678 459.86755859 268.88787598 460.5625 269.8125 C461.26922852 270.74666748 461.97595703 271.68083496 462.70410156 272.64331055 C464.80707343 275.42563459 466.90446305 278.21207355 469 281 C469.5676709 281.75410156 470.1353418 282.50820313 470.72021484 283.28515625 C473.67843676 287.21598201 476.62794747 291.15323232 479.57324219 295.09375 C481.01725317 297.02305146 482.46506202 298.94944366 483.9140625 300.875 C489.23486953 307.94885438 494.51350946 315.05097874 499.75 322.1875 C505.46743753 329.9737262 511.29129664 337.67391242 517.15893555 345.34741211 C521.32279338 350.79339477 525.45860666 356.25869973 529.5625 361.75 C533.64763838 367.21521593 537.78170624 372.63649415 542 378 C538.94210485 362.99025791 535.48310478 348.08866143 531.9375 333.1875 C531.36520446 330.77348317 530.79310457 328.35941995 530.22119141 325.9453125 C527.43517514 314.19484134 524.6314435 302.44870657 521.80859375 290.70703125 C521.5581279 289.66411423 521.30766205 288.6211972 521.04960632 287.54667664 C519.87543775 282.65801039 518.69853479 277.77004451 517.51538086 272.88354492 C515.12167074 262.95887402 512.89967478 253.0321194 511 243 C514.11390334 244.37373076 516.13496979 245.92562579 518.453125 248.40625 C519.38125 249.39818359 519.38125 249.39818359 520.328125 250.41015625 C520.96234375 251.09980469 521.5965625 251.78945313 522.25 252.5 C523.22453125 253.53447266 523.22453125 253.53447266 524.21875 254.58984375 C529 259.74274554 529 259.74274554 529 262 C529.66 262 530.32 262 531 262 C532.32981093 263.49109234 533.5869873 265.04706714 534.8125 266.625 C538.57313789 271.33339154 542.50068698 275.79509776 546.625 280.1875 C550.60296288 284.42770239 554.53459738 288.68537135 558.3359375 293.0859375 C560.32364536 295.37226814 562.34717352 297.6241823 564.375 299.875 C565.13554688 300.71933594 565.89609375 301.56367188 566.6796875 302.43359375 C568.20165087 304.11697748 569.72756626 305.79679835 571.2578125 307.47265625 C575.17858454 311.78277325 578.96802163 316.15036752 582.625 320.6875 C585.68299604 324.46752288 588.83758786 327.95748183 592.328125 331.3359375 C594.72748328 333.72408382 596.91387399 336.27829375 599.125 338.83984375 C602.68972796 342.94670742 606.35542908 346.96406576 610 351 C614.76786975 356.27985576 619.51512218 361.57291806 624.1875 366.9375 C626.27211164 369.30964429 628.38428644 371.65556065 630.5 374 C633.76390848 377.61676345 636.98790949 381.26389608 640.1875 384.9375 C642.27211164 387.30964429 644.38428644 389.65556065 646.5 392 C649.76390848 395.61676345 652.98790949 399.26389608 656.1875 402.9375 C658.27211164 405.30964429 660.38428644 407.65556065 662.5 410 C663.25152344 410.8353125 664.00304687 411.670625 664.77734375 412.53125 C666.2244087 414.1385348 667.67476693 415.74286268 669.12890625 417.34375 C669.76699219 418.0553125 670.40507813 418.766875 671.0625 419.5 C671.63097656 420.1290625 672.19945312 420.758125 672.78515625 421.40625 C674 423 674 423 674 425 C674.66 425 675.32 425 676 425 C677.39325954 426.55240341 678.71380128 428.17029985 680 429.8125 C682.33919785 432.79239726 684.58134693 435.59593745 687.31129456 438.23074341 C694.45670857 445.32423901 697.20605325 451.7715223 699.46484375 461.66015625 C699.82114444 463.10037343 700.18059378 464.53981468 700.54290771 465.97853088 C701.31092376 469.05498298 702.05764559 472.13551329 702.78744507 475.22125244 C703.95529514 480.15840081 705.16996274 485.08331105 706.3918457 490.00732422 C707.88300257 496.02827517 709.3635224 502.05163762 710.8305006 508.07852554 C713.43536936 518.77313386 716.13331297 529.44140406 718.890625 540.09765625 C719.09009357 540.86890272 719.28956215 541.64014919 719.49507523 542.43476677 C720.29613044 545.5310519 721.09774459 548.62719139 721.90024757 551.72310162 C724.07506376 560.11390487 726.23211861 568.50923439 728.3828125 576.90625 C728.66944323 578.02526546 728.66944323 578.02526546 728.96186447 579.16688728 C735.53698383 604.85081564 741.93784113 630.57884215 748.33059692 656.30865479 C749.21719632 659.87324111 750.10798278 663.43676592 751 667 C751.33 667 751.66 667 752 667 C752.13257202 665.99096115 752.26514404 664.9819223 752.4017334 663.94230652 C755.87538544 637.50656718 759.3599895 611.0722863 762.85728168 584.6396637 C763.57099631 579.24511724 764.28382545 573.8504554 764.99554634 568.45564556 C766.01337417 560.7412743 767.03731847 553.02775916 768.06982422 545.31533813 C768.39507458 542.8790832 768.71819741 540.44254316 769.0390625 538.00570679 C772.11751588 514.64928699 772.11751588 514.64928699 775 504 C775.66 504 776.32 504 777 504 C785.47413036 526.57322555 793.28206738 549.34561766 800.93896484 572.20704269 C802.54609331 577.0024194 804.15791129 581.79621919 805.76953125 586.59008789 C806.42279727 588.53339922 807.07605656 590.47671282 807.72930908 592.42002869 C808.05162758 593.37885389 808.37394608 594.3376791 808.7060318 595.32555962 C809.67608573 598.21193925 810.64558178 601.09850571 811.6149292 603.98512268 C815.14473928 614.49489201 818.68706858 625.00015602 822.2578125 635.49609375 C822.65529694 636.6646994 823.05278137 637.83330505 823.46231079 639.037323 C824.25086923 641.35541654 825.03945332 643.67350136 825.82806396 645.99157715 C833.12391403 667.44405894 840.32121388 688.92864751 847.484375 710.42578125 C847.69426497 711.05564084 847.90415493 711.68550043 848.1204052 712.33444667 C852.40011189 725.17769479 856.67726503 738.0217912 860.94832969 750.86791605 C862.76533195 756.33288395 864.58358788 761.79743414 866.40216827 767.26187706 C867.52980665 770.65181367 868.65575856 774.04230746 869.78167725 777.43281555 C870.46211043 779.47770074 871.14262713 781.52255815 871.82324219 783.56738281 C872.13268265 784.50086768 872.44212311 785.43435255 872.76094055 786.39612484 C873.0432402 787.24309712 873.32553986 788.09006941 873.61639404 788.96270752 C873.86104778 789.69888935 874.10570152 790.43507118 874.35776901 791.19356155 C874.98194055 793.065346 874.98194055 793.065346 876 795 C875.73272196 803.97980832 872.54027445 812.21820083 869.70703125 820.6484375 C869.16270832 822.28989954 868.61920784 823.93163451 868.07647705 825.57362366 C866.63011415 829.94263565 865.17325447 834.30807847 863.71437454 838.67292404 C862.20669061 843.19004511 860.70887886 847.71043441 859.21069336 852.23071289 C857.43198613 857.59595025 855.65276926 862.96101197 853.86927795 868.32466125 C849.82005328 880.5040817 845.82282722 892.69903468 841.87808228 904.91275024 C836.13697391 922.68515946 830.15802802 940.36772944 824 958 C821.15583423 956.62294059 818.96637871 955.25448924 816.625 953.125 C814.06177464 950.82759061 811.48622507 948.55229626 808.859375 946.328125 C802.02992484 940.54433694 795.36563548 934.62829158 788.83398438 928.50976562 C785.29534684 925.19554904 781.70833312 921.95868776 778.0390625 918.7890625 C772.74257147 914.14194968 767.60072664 909.31622478 762.41796875 904.54296875 C757.01664996 899.5705388 751.60635669 894.61819281 746.05859375 889.80859375 C742.5441942 886.72099035 739.10424823 883.55127304 735.6484375 880.3984375 C733.49428693 878.44762857 731.32281531 876.52606388 729.125 874.625 C724.92260575 870.97600746 720.85568167 867.18491726 716.77563477 863.40063477 C713.90661763 860.74435286 711.02383601 858.11625428 708.0625 855.5625 C704.28785332 852.30075647 700.64711228 848.90260246 697 845.5 C692.74068804 841.52654041 688.45665854 837.60361122 684.046875 833.796875 C680.83896501 830.98077081 677.70793801 828.08098559 674.56640625 825.19140625 C670.54746821 821.49641284 666.50063366 817.83390201 662.4375 814.1875 C659.91239133 811.92137684 657.39383372 809.64809385 654.875 807.375 C652.02282977 804.80539772 649.1550841 802.25949818 646.25 799.75 C641.77932853 795.86087929 637.46813572 791.80262354 633.13598633 787.76098633 C629.51828797 784.39181361 625.85615824 781.09321578 622.11328125 777.86328125 C618.66111605 774.81950528 615.30024047 771.67711054 611.92431641 768.54931641 C606.99315747 763.98374585 602.00600558 759.48335573 597 755 C595.332943 753.50043381 593.66628005 752.00042947 592 750.5 C591.175 749.7575 590.35 749.015 589.5 748.25 C582 741.5 582 741.5 579.49609375 739.24609375 C577.84296657 737.758538 576.18932744 736.27155097 574.53515625 734.78515625 C573.71917969 734.05167969 572.90320313 733.31820312 572.0625 732.5625 C571.2375 731.82128906 570.4125 731.08007812 569.5625 730.31640625 C567.80530958 728.7279704 566.0556659 727.13115773 564.3125 725.52734375 C559.74801004 721.33242187 555.14509989 717.25976953 550.3125 713.375 C546.23674124 710.08660373 542.52298629 706.63022738 538.87109375 702.8828125 C535.27925626 699.26847916 531.37353882 696.01547178 527.49169922 692.71923828 C519.86680973 686.24382962 512.37789402 679.6678993 505.06640625 672.83984375 C503.05826477 670.96773971 501.02769931 669.12803811 498.96484375 667.31640625 C498.04832031 666.51074219 497.13179687 665.70507812 496.1875 664.875 C495.37667969 664.17117188 494.56585937 663.46734375 493.73046875 662.7421875 C492 661 492 661 492 659 C508.49554958 659.46717064 524.87859332 660.43175378 541.30933762 661.95768929 C544.95190328 662.2959244 548.59516507 662.62561063 552.23867798 662.95347595 C559.95146962 663.64906127 567.66325816 664.35538651 575.375 665.0625 C584.37525227 665.88649331 593.37589267 666.70592354 602.37730789 667.51711845 C605.94487284 667.84053402 609.51178532 668.17054511 613.07870483 668.50099182 C615.27819155 668.70026001 617.47770399 668.89924452 619.67724609 669.09790039 C621.13621056 669.2358049 621.13621056 669.2358049 622.62464905 669.37649536 C629.42989604 669.98180508 636.16977793 670.09727124 643 670 C637.33522982 664.66464979 631.66844786 659.33144283 626 654 C625.27989746 653.32259766 624.55979492 652.64519531 623.81787109 651.94726562 C616.27934381 644.85840488 608.71750045 637.80014707 601.07421875 630.82421875 C597.4384819 627.49576108 593.84698325 624.12020632 590.25 620.75 C585.96749357 616.73990546 581.65898004 612.78741951 577.2109375 608.9609375 C573.27772141 605.47246669 569.46666182 601.85120561 565.63110352 598.25610352 C561.33357954 594.23221867 556.9886716 590.2695147 552.59765625 586.34765625 C549.32525861 583.39019612 546.10073517 580.38316483 542.875 577.375 C538.65241768 573.43934032 534.40327661 569.55510292 530.03125 565.78515625 C527.43756804 563.50570883 524.90947769 561.1571782 522.375 558.8125 C518.04344324 554.81138622 513.62338377 550.93721089 509.125 547.125 C503.5501375 542.39673655 498.16336684 537.49868514 492.82641602 532.50439453 C488.62754474 528.57532786 484.36370056 524.74576394 480 521 C477.60167699 518.94037711 475.20593556 516.87780085 472.8125 514.8125 C472.16450439 514.25336914 471.51650879 513.69423828 470.84887695 513.11816406 C466.57090494 509.40906848 462.38563868 505.61669454 458.25 501.75 C453.59458934 497.39843242 448.78500121 493.33331492 443.8125 489.34375 C440.60149938 486.66791615 437.54973865 483.85638862 434.5 481 C429.72031697 476.52405676 424.79833955 472.32213745 419.69140625 468.21875 C415.85662261 465.05741893 412.2127247 461.70254367 408.5546875 458.33984375 C405.74768509 455.76890424 402.89014598 453.26428828 400.015625 450.76953125 C397.71392236 448.74885044 395.45235621 446.68687382 393.1875 444.625 C389.74621795 441.51471149 386.23678702 438.53521688 382.625 435.625 C378.07299693 431.94492991 373.76747752 428.07477116 369.48535156 424.09082031 C365.3546507 420.27025621 361.04176155 416.71800211 356.66015625 413.1875 C353.11073208 410.2687371 349.7158498 407.19635561 346.31640625 404.10546875 C336.57600815 395.25205462 326.55025959 386.64734443 316.3125 378.375 C311.62836556 374.57557031 307.19067472 370.55599792 302.75390625 366.47265625 C299.16792716 363.25290481 295.43298508 360.24094824 291.68359375 357.21484375 C289.05291443 355.04367173 286.52057576 352.79758643 284 350.5 C279.80270966 346.67829137 275.46289769 343.08525811 271.05078125 339.515625 C267.47943501 336.57075051 263.98785513 333.54283024 260.5 330.5 C255.36921616 326.02572547 250.17137611 321.66178425 244.87890625 317.37890625 C241.34473944 314.45854318 237.89144318 311.45192065 234.4375 308.4375 C229.57250547 304.19343958 224.64905712 300.07089039 219.57421875 296.078125 C216.40329446 293.5182893 213.32962703 290.85586332 210.25 288.1875 C205.51729184 284.08991159 200.70017437 280.14430415 195.75 276.3125 C190.77087479 272.45599105 186.04602761 268.42390863 181.40234375 264.1640625 C177.07832782 260.26893271 172.52654001 256.65539457 168 253 C166.74556031 251.97721642 165.49168665 250.95373833 164.23828125 249.9296875 C155.5690767 242.85310892 146.82523554 235.88092584 138 229 C138 230.9006079 140.01930363 232.24078659 141.25390625 233.53515625 C141.94419922 234.26283203 142.63449219 234.99050781 143.34570312 235.74023438 C144.07724609 236.50658203 144.80878906 237.27292969 145.5625 238.0625 C150.28019274 243.0132718 154.92434628 247.99809827 159.40307617 253.16674805 C161.68029328 255.78096962 164.02425981 258.32659997 166.375 260.875 C172.42826972 267.454641 178.45773601 274.05483265 184.3125 280.8125 C187.91762807 284.95172112 191.64606624 288.97275154 195.375 293 C207.65961779 306.26738722 207.65961779 306.26738722 213.25 312.75 C217.33123457 317.45313698 221.62064012 321.96236648 225.87915039 326.50415039 C229.40368737 330.26971354 232.86585652 334.07070416 236.23046875 337.98046875 C238.60884459 340.69486236 241.05510629 343.34570757 243.5 346 C247.12097893 349.9327753 250.68959108 353.90214223 254.19140625 357.94140625 C256.4301125 360.4895665 258.71410212 362.99410593 261 365.5 C264.45822633 369.2920521 267.86947629 373.11690399 271.23828125 376.98828125 C276.60658455 383.11838368 282.11026002 389.12690762 287.625 395.125 C292.72899249 400.68270006 297.7293534 406.31219591 302.6015625 412.07421875 C308.55152438 419.09240541 314.66105801 425.90069835 320.98291016 432.58618164 C325.23737885 437.1116696 329.17260056 441.79142898 333.05078125 446.64453125 C335.32300025 449.39031894 337.76990894 451.85986599 340.328125 454.3359375 C342.73213355 456.72871236 344.92257471 459.28784717 347.13671875 461.85546875 C349.12276628 464.14129704 351.1515076 466.38357413 353.1875 468.625 C356.25052705 472.01399108 359.24610261 475.4487766 362.19970703 478.93261719 C367.67445169 485.3901926 373.32587016 491.63967478 379.12841797 497.80419922 C382.61716546 501.51142013 386.04087755 505.25527595 389.36328125 509.11328125 C391.37873772 511.43658787 393.43848462 513.71748465 395.5 516 C398.15113994 518.93678465 400.78290171 521.88602542 403.375 524.875 C406.35916686 528.30332192 409.42188484 531.65620801 412.5 535 C416.14479206 538.95937964 419.74260167 542.95127812 423.265625 547.01953125 C425.27264538 549.31133155 427.32402851 551.55996752 429.375 553.8125 C432.46636801 557.23229328 435.42459032 560.71958524 438.3125 564.3125 C441.71445404 568.52783573 445.28766564 572.49990973 449 576.4375 C464 592.41550096 464 592.41550096 464 597 C456.0494598 596.44376395 448.25481812 595.51943896 440.3984375 594.18994141 C438.76150688 593.91897392 438.76150688 593.91897392 437.09150696 593.64253235 C433.51857988 593.05000471 429.94681246 592.45076902 426.375 591.8515625 C423.86181233 591.4337287 421.34854589 591.01636846 418.83520508 590.59945679 C412.90542874 589.61485338 406.97634074 588.62621175 401.04761028 587.63533723 C389.84320684 585.76289537 378.63725714 583.89974758 367.43121338 582.03715134 C363.78441776 581.43019311 360.13802802 580.82084563 356.49169922 580.21109009 C346.19706508 578.49307258 335.90018503 576.7956612 325.58203125 575.22412109 C324.76393478 575.09792704 323.94583832 574.97173298 323.10295105 574.84171486 C319.67955569 574.32923913 316.47071877 574 313 574 C318.55931936 580.68650419 324.18085265 587.27609182 330.125 593.625 C334.52008976 598.32191953 338.62905009 603.16809141 342.65625 608.1875 C345.33208171 611.39849805 348.14358276 614.45029137 351 617.5 C354.64886656 621.39578234 358.15698239 625.33334037 361.5 629.5 C365.84043434 634.90581367 370.50641359 639.95227873 375.23046875 645.01953125 C378.5739847 648.60641497 381.8000986 652.28480633 385 656 C387.1234955 658.45963593 389.24880684 660.91769576 391.375 663.375 C391.94033447 664.02847412 392.50566895 664.68194824 393.08813477 665.35522461 C397.01999123 669.89145872 401.00677933 674.37333575 405.03515625 678.82421875 C409.02330734 683.24052125 412.92070218 687.73313241 416.78515625 692.2578125 C422.11587927 698.4992007 427.47612973 704.69781772 432.9921875 710.77734375 C434.83022419 712.81205752 436.63936065 714.86754889 438.4375 716.9375 C441.19784541 720.11221597 444.02792558 723.21537436 446.875 726.3125 C450.18336914 729.93523905 453.36012358 733.61692891 456.4375 737.4375 C460.09571015 741.97316443 463.94742965 746.2570117 467.91381836 750.51928711 C471.69490558 754.60661006 475.19689966 758.88043244 478.6875 763.21875 C481.1997101 766.24019188 483.82400827 769.12441773 486.5 772 C490.76918152 776.58760113 494.75758517 781.33442728 498.6875 786.21875 C501.1997101 789.24019188 503.82400827 792.12441773 506.5 795 C510.76918152 799.58760113 514.75758517 804.33442728 518.6875 809.21875 C521.19971256 812.24019484 523.82404088 815.12438383 526.5 818 C530.80999105 822.63245661 534.85061396 827.42122516 538.8203125 832.3515625 C540.97757399 834.97275119 543.21311 837.49154281 545.5 840 C548.59555196 843.39598682 551.55151207 846.86171531 554.4375 850.4375 C557.51336588 854.24087503 560.68753166 857.90082652 564 861.5 C568.11378909 865.9698512 571.97087297 870.59044893 575.78515625 875.31640625 C577.95632827 877.94708557 580.20241357 880.47942424 582.5 883 C586.41891252 887.29991791 590.09170869 891.75919547 593.75 896.28125 C595.93501569 898.92147729 598.19171391 901.4672972 600.5 904 C604.41891252 908.29991791 608.09170869 912.75919547 611.75 917.28125 C613.93501569 919.92147729 616.19171391 922.4672972 618.5 925 C621.52282421 928.31989486 624.42512161 931.69764112 627.25 935.1875 C631.41084769 940.32694428 635.71734489 945.32326152 640.05932617 950.30908203 C644.04777241 954.89199641 647.98974232 959.51091573 651.90576172 964.15576172 C655.25071345 968.12100149 658.62008084 972.06453714 662 976 C669.22228481 984.4155116 676.44210241 992.83165116 683.4375 1001.4375 C686.89274151 1005.68392382 690.42697834 1009.85296294 694 1014 C698.32167542 1019.01596403 702.55479041 1024.09175108 706.73046875 1029.23046875 C711.08505794 1034.54441666 715.55078435 1039.76526766 720 1045 C725.19219022 1051.10888035 730.38123581 1057.21510641 735.4375 1063.4375 C738.89274151 1067.68392382 742.42697834 1071.85296294 746 1076 C750.31809648 1081.01181013 754.54906526 1086.08218184 758.71875 1091.21875 C761.29842888 1094.36383795 763.92631983 1097.46479676 766.5625 1100.5625 C770.43011204 1105.110015 774.19597313 1109.72181412 777.90234375 1114.40234375 C780.40437764 1117.50076561 782.97893232 1120.53204494 785.5625 1123.5625 C789.20806695 1127.8403604 792.72490668 1132.17969945 796.140625 1136.64453125 C798.43796794 1139.55482074 800.84074333 1142.37007903 803.25 1145.1875 C807.09504538 1149.68646018 810.81106177 1154.26073539 814.4375 1158.9375 C818.71349867 1164.44662021 823.17131038 1169.76498494 827.73461914 1175.03759766 C831.16851631 1179.01063731 834.48632683 1183.05486973 837.7421875 1187.17578125 C840.78711224 1190.98457119 843.89456663 1194.74049109 847 1198.5 C851.43132089 1203.86760576 855.83141127 1209.25531881 860.1640625 1214.703125 C862.89478299 1218.11943063 865.67245022 1221.49678184 868.4453125 1224.87890625 C877.20378602 1235.56929287 885.95558929 1246.27206836 894.47265625 1257.15625 C899.42527033 1263.48509322 904.4192369 1269.77332433 909.5 1276 C914.57846139 1282.22385484 919.57086749 1288.50861375 924.51953125 1294.8359375 C926.6607348 1297.57269137 928.82441659 1300.29044988 931 1303 C938.77179505 1312.69503845 946.40344462 1322.49180399 953.93212891 1332.37646484 C956.86627296 1336.22453688 959.81771161 1340.05773431 962.796875 1343.87109375 C963.42553467 1344.67579102 964.05419434 1345.48048828 964.7019043 1346.30957031 C965.90982914 1347.85335564 967.11952575 1349.39575689 968.33129883 1350.93652344 C977 1362.0156575 977 1362.0156575 977 1365 C963.1734468 1358.6810775 950.77325874 1344.72644026 939.65234375 1334.4375 C937.52509466 1332.48256122 935.37727748 1330.57117955 933.1875 1328.6875 C929.19359041 1325.22946088 925.35318467 1321.61285935 921.5 1318 C917.046498 1313.82453642 912.58038907 1309.68659581 907.953125 1305.703125 C904.47095138 1302.6666696 901.07961361 1299.52924719 897.66796875 1296.4140625 C895.40769174 1294.36889238 893.12281119 1292.36304774 890.8125 1290.375 C887.37334017 1287.39112609 884.18860426 1284.20479147 880.9921875 1280.96484375 C878.45979788 1278.46721242 875.80204252 1276.14638357 873.109375 1273.82421875 C865.92388294 1267.61009876 858.97808969 1261.13225489 852.03051758 1254.65551758 C849.07957903 1251.91039303 846.11786472 1249.19184437 843.0625 1246.5625 C838.46480319 1242.59760447 834.06948787 1238.41554227 829.64013672 1234.26513672 C824.48706473 1229.4412852 819.26783668 1224.69834083 814 1220 C808.41559586 1215.00342787 802.87172783 1209.96766111 797.375 1204.875 C793.95358489 1201.70538373 790.52788647 1198.55154737 787 1195.5 C783.47210559 1192.44844576 780.04656465 1189.29446491 776.625 1186.125 C772.53478079 1182.33859513 768.44028764 1178.55797446 764.3125 1174.8125 C763.52488281 1174.09707031 762.73726562 1173.38164063 761.92578125 1172.64453125 C760.09410576 1170.94674047 760.09410576 1170.94674047 758 1170 C758 1169.34 758 1168.68 758 1168 C757.46375 1167.773125 756.9275 1167.54625 756.375 1167.3125 C753.17539839 1165.54429911 750.70962777 1163.46329797 748 1161 C748 1160.34 748 1159.68 748 1159 C747.40703125 1158.73574219 746.8140625 1158.47148438 746.203125 1158.19921875 C743.91970946 1156.95629575 742.52573277 1155.69598354 740.75 1153.8125 C737.68744029 1150.65890879 734.49521425 1147.75312487 731.16796875 1144.8828125 C728.75157049 1142.7842468 726.37470976 1140.645603 724 1138.5 C721.08511071 1135.86819555 718.15726789 1133.25713074 715.1875 1130.6875 C711.0227509 1127.06122351 706.98054344 1123.30686282 702.9296875 1119.5546875 C696.73925234 1113.82386701 690.49410503 1108.15709739 684.125 1102.625 C679.17639785 1098.31364239 674.36524653 1093.85198025 669.53466797 1089.40966797 C663.41719567 1083.79046895 657.2749062 1078.20534781 651.00390625 1072.7578125 C648.77195913 1070.79996415 646.57379141 1068.80750098 644.375 1066.8125 C641.00363609 1063.76491037 637.58595439 1060.7864987 634.11791992 1057.85058594 C627.40100372 1052.16392933 620.92925039 1046.27333369 614.59326172 1040.16357422 C613.96564941 1039.56432129 613.33803711 1038.96506836 612.69140625 1038.34765625 C612.14685791 1037.82179932 611.60230957 1037.29594238 611.04125977 1036.75415039 C610.36764404 1036.17528076 609.69402832 1035.59641113 609 1035 C608.03223633 1034.16678223 607.06447266 1033.33356445 606.06738281 1032.47509766 C600.99773511 1028.93239849 595.21011671 1028.16433266 589.23046875 1027.05078125 C587.96156296 1026.80201736 586.69265717 1026.55325348 585.38529968 1026.29695129 C570.52328916 1023.40968428 555.57692061 1020.97457261 540.63192749 1018.562603 C537.47202338 1018.05157624 534.31291987 1017.53568506 531.15377235 1017.02000523 C506.46906728 1012.99232414 481.76219182 1009.11163477 457.03717041 1005.33946228 C452.94183929 1004.71103681 448.84882701 1004.06824499 444.75588989 1003.42443848 C442.1312779 1003.02021829 439.50405013 1002.6428371 436.87475586 1002.27050781 C435.35258374 1002.03918713 433.8305208 1001.80714634 432.30859375 1001.57421875 C431.03556396 1001.39076904 429.76253418 1001.20731934 428.45092773 1001.01831055 C423.07080121 999.43072599 419.39335761 996.05485111 415.67578125 991.8828125 C413.30329497 989.32676158 410.87475517 987.03958743 408.25 984.75 C401.74992884 978.91553612 395.41206443 972.90746446 389.04931641 966.92431641 C385.87325694 963.9419837 382.68677879 960.97086894 379.5 958 C364.49024823 943.9997048 349.53712089 929.93899509 334.60546875 915.85546875 C333.15376453 914.48685326 331.70194277 913.11836242 330.25 911.75 C329.19365356 910.75444092 329.19365356 910.75444092 328.1159668 909.73876953 C323.19613187 905.10880937 318.23732983 900.52332077 313.26000977 895.95532227 C309.95238146 892.90955887 306.75287544 889.78379644 303.60546875 886.57421875 C301.16352735 884.17980905 298.55888537 881.98150124 295.96875 879.75 C293.49385639 877.55009457 291.19299014 875.20621077 288.87475586 872.84375 C287.0673744 871.06626012 285.20624852 869.40318736 283.28515625 867.75 C279.07935903 864.09278502 274.99646568 860.31881349 270.9375 856.5 C270.26912109 855.87480469 269.60074219 855.24960937 268.91210938 854.60546875 C265.72135349 851.61006526 262.57460476 848.58730581 259.50390625 845.46875 C256.47297874 842.41336223 253.28757328 839.58905366 250.03125 836.77734375 C246.60166008 833.77645257 243.30676913 830.63484683 240 827.5 C238.50144329 826.08448591 237.00274196 824.66912491 235.50390625 823.25390625 C234.75254395 822.54379395 234.00118164 821.83368164 233.22705078 821.10205078 C229.80506506 817.87213441 226.37175808 814.65435697 222.9375 811.4375 C221.61328125 810.19661458 220.2890625 808.95572917 218.96484375 807.71484375 C218.31112793 807.10237793 217.65741211 806.48991211 216.98388672 805.85888672 C214.32258802 803.36527014 211.6619884 800.87090841 209.00146484 798.37646484 C207.66984026 797.12800589 206.33813486 795.87963314 205.00634766 794.63134766 C201.63429375 791.47061464 198.2633831 788.30867717 194.89453125 785.14453125 C193.53388557 783.86715404 192.17320879 782.58980998 190.8125 781.3125 C190.15564209 780.69544189 189.49878418 780.07838379 188.82202148 779.44262695 C185.61112566 776.43063972 182.38912277 773.43236728 179.140625 770.4609375 C178.53629639 769.90752686 177.93196777 769.35411621 177.30932617 768.78393555 C176.17390618 767.74626799 175.03616968 766.7111275 173.89575195 765.67895508 C170.10981835 762.21963671 170.10981835 762.21963671 169 760 C178.971044 759.59101282 188.51685007 760.86560104 198.3359375 762.3515625 C200.05840376 762.60569227 201.78098217 762.8590629 203.50366211 763.11174011 C208.15935427 763.79682662 212.81339682 764.49257332 217.46721649 765.1902504 C222.36082187 765.92190493 227.25593691 766.64331921 232.15087891 767.3659668 C243.67579894 769.06958148 255.19837969 770.78871693 266.72064209 772.5102005 C272.26024607 773.33758663 277.80005166 774.16362056 283.33984375 774.98974609 C285.57115707 775.32254876 287.80247014 775.65535312 290.03378296 775.98815918 C294.43547238 776.64464918 298.83718852 777.30095964 303.23892212 777.95715332 C305.39447287 778.27854665 307.55002098 778.59995766 309.70556641 778.92138672 C310.76014353 779.0786385 311.81472065 779.23589027 312.90125465 779.39790726 C319.19299651 780.33652299 325.48424347 781.27837859 331.77509689 782.22292995 C335.68836965 782.81023396 339.6018843 783.39591495 343.51544189 783.98131752 C345.33837615 784.25443669 347.16119352 784.52833724 348.98388672 784.80306053 C351.46992537 785.17771726 353.95634474 785.54973869 356.44287109 785.92114258 C357.17142996 786.03165766 357.89998882 786.14217274 358.65062523 786.25603676 C361.46896004 786.67475645 364.14558384 787 367 787 C342.69366247 775.81630185 342.69366247 775.81630185 318.25 764.9375 C307.93963191 760.42942905 297.72784967 755.75474218 287.5859375 750.87890625 C274.30266887 744.50422188 260.91309134 738.38496715 247.4798584 732.3343811 C245.4987373 731.43686307 243.52372544 730.52691704 241.54931641 729.61474609 C239.40964448 728.64131164 237.25381622 727.7010039 235.07177734 726.82666016 C223.13278149 721.750936 217.74368427 708.49983271 211.5625 697.75 C210.8077526 696.44824004 210.05229392 695.14689222 209.29614258 693.84594727 C207.8332707 691.32886772 206.3724243 688.81063345 204.91308594 686.29150391 C202.70225202 682.48771845 200.46104542 678.70405554 198.1875 674.9375 C197.50816406 673.81085937 196.82882813 672.68421875 196.12890625 671.5234375 C195.78746582 670.95850586 195.44602539 670.39357422 195.09423828 669.81152344 C192.93204628 666.23199094 190.77820743 662.6474421 188.625 659.0625 C188.13241699 658.24257568 187.63983398 657.42265137 187.13232422 656.57788086 C183.94096791 651.25780417 180.76740114 645.92743843 177.60546875 640.58984375 C177.21858383 639.93682281 176.83169891 639.28380188 176.43309021 638.61099243 C176.03985062 637.94723602 175.64661102 637.28347961 175.24145508 636.59960938 C174.43182796 635.23305836 173.62217605 633.86652203 172.8125 632.5 C172.40889252 631.81881104 172.00528503 631.13762207 171.58944702 630.43579102 C165.40971339 620.01080364 159.15865649 609.63166671 152.85293579 599.2824707 C148.46279262 592.07641308 144.11819551 584.84980564 139.86914062 577.55981445 C136.33042212 571.51156941 132.68254244 565.53079941 129.03417969 559.54833984 C122.75703953 549.25505969 116.57220397 538.91553726 110.5 528.5 C104.91690454 518.92730385 99.26236137 509.40345627 93.5 499.9375 C93.149375 499.36144012 92.79875 498.78538025 92.4375 498.19186401 C89.96159317 494.12591809 87.48131807 490.0626452 85 486 C76.45421814 472.00804948 67.93435067 458.00105714 59.59130859 443.88693237 C58.82706439 442.5956936 58.060652 441.30573546 57.29199219 440.01712036 C56.22853581 438.23260391 55.17368752 436.44328307 54.12109375 434.65234375 C53.5170874 433.63132568 52.91308105 432.61030762 52.29077148 431.55834961 C51 429 51 429 51 426 C57.13117548 427.94681708 63.05474165 430.18582037 68.9609375 432.73046875 C69.79098297 433.08458328 70.62102844 433.43869781 71.47622681 433.80354309 C74.11058626 434.92820636 76.74285287 436.05767013 79.375 437.1875 C81.9599023 438.29326646 84.54523534 439.39802104 87.13061523 440.50267029 C88.85530533 441.23978193 90.57975087 441.97746603 92.30395508 442.7157135 C98.11669357 445.20289487 103.94215982 447.6582229 109.7734375 450.1015625 C117.62289529 453.39519366 125.41540862 456.80511131 133.19036865 460.27035522 C146.29186692 466.10439475 159.45536625 471.76734042 172.69580078 477.27807617 C173.95868915 477.80380093 175.22154736 478.32959813 176.484375 478.85546875 C177.41375381 479.24245186 177.41375381 479.24245186 178.36190796 479.63725281 C182.82080141 481.49791396 187.26533822 483.39036463 191.703125 485.30078125 C192.33135162 485.57113693 192.95957825 485.84149261 193.60684204 486.12004089 C196.56625502 487.39473954 199.52401273 488.67314167 202.47998047 489.95581055 C209.91625142 493.16577261 217.42018496 496.14576701 225 499 C218.71140655 494.39164603 212.38148057 489.85340028 206 485.375 C198.97961627 480.44105542 192.0547726 475.387913 185.15820312 470.28271484 C179.79868651 466.31749977 174.41112356 462.39444121 169 458.5 C166.78178516 456.89943476 164.56426098 455.29791959 162.34716797 453.69580078 C160.70362444 452.50836024 159.0593577 451.32192037 157.41455078 450.13623047 C154.79265845 448.24282868 152.17698347 446.34111478 149.5625 444.4375 C148.75103516 443.85355469 147.93957031 443.26960938 147.10351562 442.66796875 C146.34876953 442.11625 145.59402344 441.56453125 144.81640625 440.99609375 C144.15068604 440.51325928 143.48496582 440.0304248 142.79907227 439.53295898 C139.04586451 436.33491427 137.44984234 432.9507007 135.96630859 428.29882812 C135.59516937 427.14821899 135.22403015 425.99760986 134.84164429 424.81213379 C134.44788605 423.56444214 134.05412781 422.31675049 133.6484375 421.03125 C133.22656261 419.71377078 132.80399198 418.39651418 132.38076782 417.07946777 C131.26276977 413.59400038 130.15407621 410.1056416 129.04736328 406.61657715 C127.95490796 403.17756428 126.85417158 399.74120794 125.75390625 396.3046875 C124.01489807 390.87012581 122.28090458 385.43398932 120.55004883 379.99682617 C118.10297421 372.31164506 115.63312624 364.6339163 113.16015625 356.95703125 C110.07785784 347.38202774 107.03864701 337.7959959 104.0625 328.1875 C97.86129309 308.26024952 91.43269091 288.40866204 84.9296875 268.578125 C84.56472168 267.46513031 84.19975586 266.35213562 83.82373047 265.20541382 C83.45103027 264.06883331 83.07833008 262.93225281 82.69433594 261.76123047 C81.92119588 259.40332952 81.1480843 257.04541923 80.375 254.6875 C79.98574341 253.50029358 79.59648682 252.31308716 79.19543457 251.08990479 C73.4909167 233.68440614 67.85671192 216.2580231 62.29168701 198.8074646 C56.48214516 180.5919132 50.60843246 162.39767931 44.71562958 144.20894241 C37.34617511 121.46155878 29.99229122 98.70955988 22.72827148 75.92822266 C22.10143158 73.96255495 21.47455991 71.99689737 20.84765625 70.03125 C20.53954514 69.0650473 20.23143402 68.0988446 19.91398621 67.10336304 C17.83965372 60.60681435 15.7459445 54.1167334 13.64233398 47.62960815 C12.14031421 42.99626104 10.64346011 38.36125202 9.14691162 33.72613525 C8.43239202 31.51806982 7.71537043 29.31081223 6.9956665 27.10443115 C6.00236833 24.05864893 5.01787294 21.01014736 4.03515625 17.9609375 C3.74120468 17.06749634 3.44725311 16.17405518 3.14439392 15.25354004 C1.5082654 10.14289852 0.49125671 5.3470065 0 0 Z " fill="#1D395E" transform="translate(32,41)"/>
<path d="" fill="#12375B" transform="translate(0,0)"/>
</svg>
