<svg width="1200" height="630" viewBox="0 0 1200 630" fill="none" xmlns="http://www.w3.org/2000/svg">
  <rect width="1200" height="630" fill="#F6F8FB"/>
  <rect x="64" y="58" width="1072" height="514" rx="34" fill="#FFFFFF" stroke="#D9E0EB" stroke-width="2"/>
  <rect x="96" y="90" width="1008" height="450" rx="24" fill="#E9EEF6"/>
  <rect x="129" y="124" width="335" height="64" rx="18" fill="#1E3A5F"/>
  <g transform="translate(153 140)">
    <rect x="0" y="0" width="32" height="32" rx="10" fill="#F6F8FB"/>
    <path d="M10 11.5L16 8L22 11.5V20.5L16 24L10 20.5V11.5Z" stroke="#1E3A5F" stroke-width="2" stroke-linejoin="round"/>
  </g>
  <text x="198" y="165" fill="#FFFFFF" font-family="Inter, Arial, sans-serif" font-size="30" font-weight="800">Patchman</text>
  <text x="128" y="278" fill="#0F172A" font-family="Inter, Arial, sans-serif" font-size="74" font-weight="900">Lightweight Postman</text>
  <text x="128" y="358" fill="#0F172A" font-family="Inter, Arial, sans-serif" font-size="74" font-weight="900">Alternative</text>
  <text x="130" y="421" fill="#5F6F89" font-family="Inter, Arial, sans-serif" font-size="30" font-weight="600">Fast local API testing with Git-friendly request files.</text>
  <rect x="730" y="148" width="316" height="268" rx="20" fill="#10233D"/>
  <rect x="758" y="179" width="86" height="39" rx="12" fill="#2F7D6D"/>
  <text x="779" y="205" fill="#FFFFFF" font-family="Inter, Arial, sans-serif" font-size="17" font-weight="900">POST</text>
  <rect x="858" y="179" width="156" height="39" rx="12" fill="#FFFFFF" fill-opacity="0.12"/>
  <text x="777" y="273" fill="#EAF2FF" font-family="JetBrains Mono, Consolas, monospace" font-size="21" font-weight="700">{</text>
  <text x="805" y="313" fill="#EAF2FF" font-family="JetBrains Mono, Consolas, monospace" font-size="21" font-weight="700">"email": "dev@example.com",</text>
  <text x="805" y="353" fill="#EAF2FF" font-family="JetBrains Mono, Consolas, monospace" font-size="21" font-weight="700">"status": "200 OK"</text>
  <text x="777" y="393" fill="#EAF2FF" font-family="JetBrains Mono, Consolas, monospace" font-size="21" font-weight="700">}</text>
  <rect x="730" y="438" width="316" height="58" rx="16" fill="#FFFFFF"/>
  <circle cx="765" cy="467" r="12" fill="#2F7D6D"/>
  <path d="M759 467L764 472L773 461" stroke="#FFFFFF" stroke-width="3" stroke-linecap="round" stroke-linejoin="round"/>
  <text x="792" y="475" fill="#315F49" font-family="Inter, Arial, sans-serif" font-size="19" font-weight="800">Ready to commit</text>
</svg>
